<svg width="702" height="489" viewBox="0 0 702 489" fill="none" xmlns="http://www.w3.org/2000/svg">
<path d="M248.318 11.1105C254.445 10.8938 306.946 9.53857 309.62 13.3372C313.795 19.268 312.152 43.4634 312.616 52.7765C332.274 52.4609 352.754 52.3896 372.268 54.9434C431.071 62.6386 474.819 115.919 464.734 175.888C460.491 200.862 446.19 223.004 425.171 237.15C418.775 241.472 409.843 245.559 404.513 249.42L404.135 249.698C407.519 256.074 416.924 269.434 421.302 275.865C430.697 289.576 439.996 303.354 449.193 317.199C453.937 324.251 459.404 331.814 463.401 339.309C466.572 345.545 462.719 353.729 455.312 353.664C436.147 353.503 417.103 353.654 397.952 353.071C391.679 352.883 387.528 353.859 383.247 348.321C379.565 343.554 376.357 338.671 372.991 333.706L358.19 312.054C345.045 292.794 332.031 273.443 319.151 254.004C317.119 250.826 314.768 247.587 312.587 244.485C313.471 251.392 312.768 270.31 312.703 277.705L312.236 312.189C312.138 321.213 312.208 330.248 311.72 339.263C311.52 342.948 311.804 349.205 308.776 351.714C304.74 355.055 255.127 354.014 247.181 353.085C244.784 352.807 242.55 352.451 241.026 350.401C236.248 343.983 238.66 314.998 239.706 306.603C244.463 268.424 265.989 231.036 300.744 212.821C309.634 208.162 319.93 205.049 329.64 202.669C344.798 198.953 362.091 199.503 374.869 189.257C382.74 182.95 388.481 175.449 389.561 165.195C390.788 153.512 389.345 142.823 381.722 133.46C370.914 120.188 356.778 116.994 340.467 116.845C334.624 116.791 328.69 117.075 322.875 116.476C323.445 102.998 322.648 88.7841 323.2 74.9154C300.544 75.0073 271.051 87.3276 253.331 101.079C249.254 104.242 243.153 109.836 239.427 113.458C239.295 110.405 238.933 107.799 238.716 104.816C237.651 90.1443 237.961 74.9627 237.972 60.2061C238.212 46.8432 237.564 33.3529 239.013 20.0485C239.774 13.0541 241.626 11.659 248.318 11.1105Z" fill="#002C4F"/>
<path d="M285.939 124.495C293.503 123.988 302.346 124.17 308.733 128.835C310.98 130.476 311.537 131.772 311.964 134.478C312.773 139.599 313.211 179.714 311.18 182.131C309.99 183.547 294.037 188.514 290.81 189.993C274.165 197.622 260.072 208.617 249.356 223.534C245.698 228.024 242.052 234.34 239.264 239.366C239.396 233.869 238.461 226.948 238.301 221.276C238.16 212.171 237.746 202.808 238.032 193.712C238.45 180.413 236.214 165.147 243.78 153.541C253.403 138.631 268.577 128.176 285.939 124.495Z" fill="#002C4F"/>
<path d="M281.35 416.753C288.702 416.561 296.375 416.486 303.729 416.794C310.704 417.082 317.32 420.859 320.368 427.37C322.371 431.678 322.594 436.603 320.988 441.072C318.951 446.634 315.157 449.293 310.049 451.644C314.653 459.122 319.715 466.357 324.355 473.927C320.172 474.362 316.829 474.301 312.629 473.982C310.041 472.906 300.346 456.295 298.264 452.83C296.617 452.71 294.423 452.737 292.729 452.713C293.041 459.526 292.84 467.203 292.944 474.102C289.079 474.263 285.096 474.054 281.096 474.218C281.453 460.644 280.768 446.216 281.03 432.569C281.085 429.697 280.821 419.08 281.35 416.753ZM293.125 442.521C298.294 442.312 304.602 443.19 308.505 440.273C311.233 436.613 312.088 431.894 307.882 428.94C303.616 425.941 297.909 426.541 292.995 426.599L293.125 442.521Z" fill="#002C4F"/>
<path d="M541.417 416.547C554.302 416.503 572.146 414.354 576.085 430.482C578.673 441.092 573.219 447.36 564.472 451.839C566.34 454.149 568.657 458.104 570.326 460.743L578.944 474.143C575.351 474.266 571.248 474.551 567.684 474.16C566.261 474.006 565.86 473.536 565.041 472.409C560.794 466.446 556.831 459.153 552.951 452.905C551.145 452.782 549.129 452.878 547.302 452.922L547.426 474.215C543.624 474.201 539.826 474.143 536.025 474.04C536.152 458.296 535.411 442.353 535.871 426.572C535.967 423.271 535.946 419.923 535.908 416.619C537.663 416.688 539.645 416.592 541.417 416.547ZM547.669 442.675C552.046 442.552 559.272 443.09 562.573 440.763C564.564 438.577 565 438.097 565.02 435.009C565.082 425.235 554.069 426.517 547.268 426.606C547.374 431.743 547.34 437.607 547.669 442.675Z" fill="#002C4F"/>
<path d="M678.235 416.667C682.037 416.671 685.667 416.52 689.468 416.359C690.112 422.199 689.811 431.585 689.828 437.638C689.934 449.804 689.941 461.97 689.845 474.14C688.429 474.222 686.572 474.194 685.118 474.215C682.839 474.194 680.559 474.263 678.287 474.417C678.444 466.257 677.944 458.125 678.307 449.975C675.13 449.557 670.197 449.831 666.862 449.883C662.128 449.934 657.398 449.937 652.668 449.893L652.682 474.438C648.846 474.119 644.997 474.116 641.161 474.431C641.003 460.047 640.962 445.664 641.038 431.28C641.041 429.005 640.733 418.532 641.679 417.134C643.084 416.472 644.774 416.599 646.381 416.554C648.465 416.602 650.443 416.476 652.521 416.366C652.784 420.67 652.658 425.245 652.702 429.584C652.74 433.066 652.99 436.963 652.757 440.369C659.777 439.79 670.955 440.15 678.331 440.211C678.184 432.346 678.441 424.45 678.235 416.667Z" fill="#002C4F"/>
<path d="M77.38 416.545L78.9924 416.511L79.4541 416.96C79.9138 420.73 79.6053 431.412 79.5974 435.798L79.5062 475.004C68.6855 463.366 55.9172 452.978 44.9985 441.679C45.0602 443.204 45.0427 445.099 44.9855 446.638C44.6499 455.655 45.6416 465.199 45.1229 474.147C42.8236 474.284 39.9018 474.188 37.5538 474.171C36.0223 474.243 35.068 474.466 33.8913 473.702C33.4923 471.347 33.7126 464.706 33.6309 461.765C33.3298 450.946 33.8382 440.274 33.4591 429.407C33.3053 425 33.8197 420.891 33.5151 416.137C39.8134 421.603 45.2642 426.915 51.3289 432.601C57.2845 438.18 62.6517 442.985 68.3157 448.982C67.4735 440.929 67.9331 425.503 67.9455 416.764C71.0908 416.713 74.2357 416.641 77.38 416.545Z" fill="#002C4F"/>
<path d="M497.091 416.866C500.186 416.637 502.966 415.793 504.443 419.131C507.597 426.25 510.555 433.463 513.516 440.664L527.55 474.328C512.903 473.906 515.079 476.484 510.061 461.922C506.904 461.61 505.369 461.668 502.232 461.799C497.697 461.973 494.191 461.795 489.622 461.562C488.096 465.592 486.4 469.797 485.124 473.893C481.258 474.424 476.469 474.009 472.305 474.222C479.469 455.479 487.897 437.172 495.277 418.515C495.692 417.466 496.179 417.363 497.091 416.866ZM493.707 452.405C495.911 452.323 498.719 452.141 500.878 452.247L506.489 452.36C505.317 450.095 500.251 437.144 499.655 436.531L493.707 452.405Z" fill="#002C4F"/>
<path d="M427.384 416.793C432.097 416.762 463.752 415.902 465.476 417.283C466.491 419.754 465.939 423.945 465.754 426.7C456.921 426.628 448.091 426.604 439.258 426.628C439.247 431.354 439.028 435.203 439.285 439.991C445.38 440.083 451.474 440.1 457.565 440.049C458.179 444.079 457.918 446.015 457.565 450.042L439.049 450.121L439.124 457.26L439.186 464.237C442.469 463.87 463.547 463.644 466.124 464.405C467.355 466.403 466.638 471.619 466.532 474.203C453.589 474.542 439.902 473.764 426.959 474.337C427.267 469.628 427.096 463.404 427.086 458.6L427.062 432.228C427.065 428.236 426.938 420.59 427.384 416.793Z" fill="#002C4F"/>
<path d="M153.923 416.552C161.91 416.593 169.898 416.515 177.883 416.316C177.935 419.925 177.959 423.129 177.796 426.731C168.922 426.614 160.047 426.583 151.173 426.635C151.173 431.196 151.243 435.761 151.382 440.323C156.62 439.733 164.133 440.367 170.081 439.925L169.971 450.117C166.131 450.491 155.647 450.131 151.182 450.076C151.116 454.744 151.397 459.452 151.234 464.065L157.249 464.017C161.634 464.038 175.1 464.35 178.812 463.568C178.978 467.15 179.013 470.738 178.917 474.323C166.038 473.85 152.51 474.278 139.551 474.179C139.261 467.109 138.763 420.96 140.051 417.313C141.811 416.261 151.301 416.59 153.923 416.552Z" fill="#002C4F"/>
<path d="M332.276 416.766C333.621 416.838 335.067 416.821 336.418 416.793C347.603 416.574 358.884 416.982 370.058 416.594C370.209 419.939 370.24 423.291 370.144 426.639L343.463 426.602C343.435 431.002 343.754 435.68 343.545 440.015C349.622 440.138 355.775 440.005 361.866 440.039C362.113 443.603 362.291 446.41 362.222 449.971C356.546 450.444 349.543 450.043 343.682 450.098C343.805 452.832 343.781 455.797 343.812 458.549C343.898 460.317 343.86 462.281 343.86 464.066C350.942 463.583 363.357 463.974 370.908 463.97C371.117 467.678 371.076 470.406 370.949 474.128C358.15 474.067 344.662 474.464 331.944 473.964C332.171 470.43 331.969 465.07 331.958 461.349L331.89 435.296C331.887 429.71 331.805 422.277 332.276 416.766Z" fill="#002C4F"/>
<path d="M249.768 415.808C250.179 415.747 250.591 415.699 251.005 415.664C256.214 415.246 261.373 416.929 265.334 420.335C282.413 434.818 262.67 452.862 252.769 464.377C258.046 463.904 266.378 464.103 271.939 464.096C272.138 466.957 272.074 471.056 272.117 474.01C269.002 474.432 262.842 474.267 259.475 474.26L237.91 474.175C235.872 474.257 233.708 474.565 231.968 473.527C230.972 469.312 258.592 443.334 259.836 436.144C261.757 425.041 246.918 419.65 244.079 434.894C240.163 434.904 236.591 434.907 232.686 434.685C233.176 423.029 238.566 417.631 249.768 415.808Z" fill="#002C4F"/>
<path d="M396.853 415.829C406.454 415.041 413.638 418.81 418.142 427.392C415.057 428.66 411.952 429.883 408.833 431.059C408.38 430.51 407.917 429.969 407.444 429.438C404.264 425.908 397.158 424.678 393.644 428.221C392.835 429.026 392.404 430.137 392.452 431.278C392.678 437.779 402.766 438.674 407.448 440.946C410.221 442.073 412.394 443.533 414.65 445.5C421.094 451.121 421.526 462.406 415.332 468.445C409.984 473.657 404.644 474.37 397.459 474.408C391.838 473.726 387.505 472.465 383.354 468.335C382.011 466.998 379.142 463.537 379.135 461.615C379.923 459.997 385.5 457.872 387.382 457.029C391.636 462.519 393.967 465.377 401.597 464.826C403.091 464.716 406.149 463.469 406.869 462.074C410.954 454.188 404.863 450.908 398.231 448.883C389.367 445.967 379.916 440.713 381.428 429.866C382.658 421.052 388.77 417.381 396.853 415.829Z" fill="#002C4F"/>
<path d="M611.84 415.849C618.431 415.469 623.847 417.015 629.606 420.305C634.596 423.156 627.967 428.708 625.458 431.665C622.956 429.835 621.016 428.584 617.972 427.827C602.588 423.663 592.038 443.626 600.37 455.597C607.312 465.569 616.145 465.24 625.335 459.246C626.411 460.041 627.258 460.936 628.21 461.875C629.547 463.424 632.9 466.532 630.898 468.537C627.422 472.019 622.109 473.835 617.321 474.394C609.557 475.361 601.731 473.136 595.633 468.232C585.124 459.754 582.875 443.461 588.421 431.682C592.96 422.042 601.584 416.874 611.84 415.849Z" fill="#002C4F"/>
<path d="M106.737 416.558C114.664 416.63 122.591 416.592 130.517 416.445C131.047 420.314 130.84 423.323 130.535 427.141C125.302 426.589 121.183 426.746 115.916 426.825L116.035 474.112C112.01 474.273 108.236 474.143 104.072 474.4C104.235 458.55 103.823 442.628 103.954 426.808C98.8406 426.602 93.8574 426.661 88.748 426.712C88.9338 423.22 89.0788 420.365 88.9773 416.873C94.6759 416.571 100.99 416.626 106.737 416.558Z" fill="#002C4F"/>
<path d="M188.511 416.714C191.366 416.495 196.647 416.663 199.535 416.827C200.337 421.718 199.928 436.012 199.876 441.906C199.821 448.147 200.181 458.158 199.899 464.131C207.551 463.847 216.478 463.991 224.179 464.169C224.222 466.16 224.64 472.935 223.734 474.261C212.014 474.035 200.291 474.052 188.571 474.316C188.289 468.326 188.5 460.485 188.496 454.34L188.511 416.714Z" fill="#002C4F"/>
<path d="M21.0843 416.533C21.9931 416.361 22.2302 416.238 23.0818 416.612C23.6194 417.938 23.3469 469.402 23.0902 474.128C20.5424 474.365 15.9767 474.272 13.2818 474.296C12.4957 474.402 12.5467 474.419 11.79 474.197C10.4542 470.434 11.4003 425.224 11.4701 416.934C14.4239 416.704 17.9561 416.728 21.0843 416.533Z" fill="#002C4F"/>
</svg>
